<svg xmlns="http://www.w3.org/2000/svg" version="1.1" xmlns:xlink="http://www.w3.org/1999/xlink" width="512" height="512" x="0" y="0" viewBox="0 0 128 128" style="enable-background:new 0 0 512 512" xml:space="preserve" class=""><g><path d="M110.375 43.333a1.75 1.75 0 0 0-1.75 1.75V57.5a1.75 1.75 0 1 0 3.5 0V45.083a1.75 1.75 0 0 0-1.75-1.75Z" fill="#3562d7" opacity="1" data-original="#000000" class=""></path><path d="M121.5 79.25h-3.37V14a1.75 1.75 0 0 0-1.75-1.75H68.75V6.5A1.75 1.75 0 0 0 67 4.75h-6a1.75 1.75 0 0 0-1.75 1.75v5.75H11.62A1.75 1.75 0 0 0 9.87 14v65.25H6.5A1.75 1.75 0 0 0 4.75 81v9a1.75 1.75 0 0 0 1.75 1.75h40.151l-12.385 24.616a4.75 4.75 0 0 0 8.487 4.27L57.288 91.75h13.424l14.536 28.888a4.75 4.75 0 1 0 8.485-4.274L81.349 91.75H121.5a1.75 1.75 0 0 0 1.75-1.75v-9a1.75 1.75 0 0 0-1.75-1.75Zm-58.75-71h2.5v4h-2.5Zm-49.38 7.5h101.26v63.5H13.37Zm26.257 103.312a1.25 1.25 0 1 1-2.233-1.125L50.569 91.75h2.8Zm50.981-1.123a1.249 1.249 0 0 1-1.118 1.811 1.26 1.26 0 0 1-1.116-.687L74.63 91.75h2.8ZM119.75 88.25H8.25v-5.5h111.5Z" fill="#3562d7" opacity="1" data-original="#000000" class=""></path></g></svg>