<svg xmlns="http://www.w3.org/2000/svg" version="1.1" xmlns:xlink="http://www.w3.org/1999/xlink" width="512" height="512" x="0" y="0" viewBox="0 0 512 512" style="enable-background:new 0 0 512 512" xml:space="preserve" class=""><g><path d="M468.382 359.782c-13.383-17.891-31.781-30.688-53.208-37.011l-91.349-28.483a15.701 15.701 0 0 0-5.032-.704c-3.36-3.556-5.634-8.925-5.634-13.747V259.22a116.938 116.938 0 0 0 11.558-8.784c17.98-15.481 29.263-37.872 31.598-62.277 13.128-.372 23.693-11.167 23.693-24.383v-18.704a24.343 24.343 0 0 0-8.636-18.613v-24.197a7.512 7.512 0 0 0-7.513-7.513 7.513 7.513 0 0 0-7.513 7.513l-.001 16.137c-.629-.213-1.261-.411-1.89-.62a341.63 341.63 0 0 0-2.864-.939 323.508 323.508 0 0 0-3.743-1.177c-.939-.29-1.878-.582-2.819-.863a339.724 339.724 0 0 0-3.868-1.125c-.9-.257-1.8-.52-2.701-.769-1.39-.384-2.781-.75-4.173-1.115-.802-.21-1.603-.429-2.405-.633a317.218 317.218 0 0 0-5.325-1.297c-.421-.099-.841-.208-1.262-.305-2.193-.508-4.389-.99-6.586-1.45-.666-.139-1.333-.264-2-.399a324.035 324.035 0 0 0-4.615-.909c-.852-.159-1.704-.304-2.556-.456a318.284 318.284 0 0 0-4.074-.707c-.917-.151-1.834-.29-2.752-.433a305.237 305.237 0 0 0-3.897-.586c-.942-.134-1.884-.26-2.827-.386-1.28-.17-2.559-.335-3.839-.489a308.173 308.173 0 0 0-9.529-.997 319.03 319.03 0 0 0-3.894-.316c-.924-.07-1.847-.142-2.771-.203-1.35-.09-2.7-.163-4.05-.234-.869-.046-1.738-.098-2.607-.137a302.344 302.344 0 0 0-4.463-.155c-.73-.022-1.46-.053-2.19-.069a300.722 300.722 0 0 0-6.648-.077c-2.215 0-4.431.028-6.646.077-.732.016-1.464.048-2.196.069-1.485.044-2.971.089-4.456.155-.872.039-1.745.091-2.617.137a287.79 287.79 0 0 0-4.04.234c-.925.062-1.85.134-2.775.204-1.296.098-2.593.2-3.889.315-.949.084-1.898.176-2.847.269a309.612 309.612 0 0 0-6.691.729 311.74 311.74 0 0 0-3.822.486c-.948.126-1.896.253-2.843.388-1.294.185-2.588.383-3.881.584-.922.143-1.844.283-2.766.435-1.35.223-2.7.462-4.049.703-.861.154-1.722.3-2.582.461-1.526.285-3.05.592-4.574.901-.679.138-1.359.265-2.038.407a318.13 318.13 0 0 0-6.577 1.448c-.446.103-.892.218-1.338.324-1.75.413-3.499.834-5.247 1.278-.82.208-1.639.432-2.459.647-1.372.36-2.744.72-4.115 1.099-.918.254-1.835.521-2.752.784-1.271.364-2.541.728-3.811 1.108-.959.287-1.917.584-2.875.88-1.227.379-2.453.763-3.677 1.157-.977.315-1.953.636-2.928.96-.618.205-1.237.399-1.854.608V67.108c0-17.862 12.135-33.226 29.511-37.362l54.849-13.056a61.941 61.941 0 0 1 28.044-.115l58.468 13.409c17.558 4.027 29.821 19.42 29.821 37.432a7.512 7.512 0 0 0 7.513 7.513 7.512 7.512 0 0 0 7.513-7.513c0-25.062-17.061-46.477-41.488-52.08L271.414 1.928a77.07 77.07 0 0 0-34.883.145l-54.848 13.056c-24.175 5.754-41.059 27.129-41.059 51.98l.002 59.35a24.342 24.342 0 0 0-8.638 18.614v18.704c0 13.216 10.565 24.011 23.693 24.383 2.334 24.405 13.618 46.796 31.598 62.277a116.938 116.938 0 0 0 11.558 8.784v20.618c0 4.822-2.273 10.191-5.633 13.747a15.646 15.646 0 0 0-5.032.704l-91.349 28.483c-21.427 6.323-39.824 19.119-53.208 37.011-13.394 17.907-20.474 39.192-20.474 61.555v5.602a7.512 7.512 0 0 0 7.513 7.513 7.512 7.512 0 0 0 7.513-7.513v-5.602c0-19.093 6.045-37.266 17.481-52.554 11.437-15.289 27.162-26.221 45.477-31.613l.114-.034 48.649-15.169 40.642 46.383c5.848 6.674 14.126 10.303 22.654 10.303a30.27 30.27 0 0 0 9.774-1.626l9.185-3.129 12.941 27.326c-3.975 1.515-7.649 3.855-10.816 6.961-6.143 6.028-9.666 14.393-9.666 22.949v45.88c0 6.034 4.909 10.943 10.943 10.943h18.825c6.033 0 10.942-4.909 10.942-10.943v-16.447c12.816-4.006 22.08-16.049 22.08-29.972 0-13.363-8.551-24.924-20.465-29.407l12.925-27.292 9.184 3.129a30.284 30.284 0 0 0 9.775 1.626c8.528 0 16.806-3.63 22.654-10.304l40.642-46.382 48.649 15.169.114.034c18.315 5.392 34.041 16.324 45.477 31.613 11.436 15.288 17.481 33.461 17.481 52.554v64.301c0 6.25-5.085 11.336-11.336 11.336h-37.693V425.03a7.512 7.512 0 0 0-7.513-7.513 7.512 7.512 0 0 0-7.513 7.513v71.943H102.222V425.03c0-4.15-3.363-7.513-7.513-7.513s-7.513 3.363-7.513 7.513v71.943H49.503c-6.25 0-11.336-5.085-11.336-11.336v-23.74c0-4.15-3.363-7.513-7.513-7.513s-7.513 3.363-7.513 7.513v23.74c0 14.537 11.826 26.363 26.363 26.363h412.991c14.537 0 26.363-11.826 26.363-26.363v-64.301c-.002-22.362-7.082-43.647-20.476-61.554zM163.579 131.601c.617-.202 1.236-.39 1.854-.588 1.488-.477 2.976-.952 4.466-1.405.791-.241 1.585-.467 2.377-.701 1.322-.391 2.644-.782 3.968-1.154.863-.243 1.727-.472 2.591-.706 1.255-.341 2.509-.682 3.765-1.006.905-.234 1.812-.456 2.718-.681 1.218-.303 2.435-.604 3.654-.891.931-.219 1.863-.429 2.795-.639 1.195-.27 2.391-.536 3.587-.791.948-.202 1.897-.396 2.846-.588a297.18 297.18 0 0 1 6.423-1.23 291.699 291.699 0 0 1 9.971-1.621c.957-.139 1.915-.276 2.873-.406 1.192-.161 2.384-.31 3.576-.456.949-.116 1.897-.234 2.846-.34 1.209-.136 2.418-.257 3.627-.378.931-.093 1.863-.19 2.795-.274 1.24-.112 2.48-.206 3.72-.302.901-.069 1.803-.145 2.704-.206 1.298-.088 2.595-.156 3.893-.226.843-.045 1.686-.1 2.528-.138 1.434-.065 2.869-.107 4.303-.15.707-.021 1.414-.053 2.121-.069 2.139-.048 4.279-.075 6.417-.075h.015c2.134 0 4.269.026 6.404.074.712.016 1.424.048 2.135.07 1.427.043 2.854.085 4.281.149.857.039 1.713.094 2.57.14 1.284.069 2.568.137 3.852.223.914.062 1.828.138 2.742.209 1.226.094 2.452.188 3.677.298.946.085 1.891.183 2.837.278 1.195.119 2.39.239 3.584.374.962.108 1.923.227 2.885.345 1.178.144 2.356.291 3.533.45.972.131 1.945.271 2.917.412a281.882 281.882 0 0 1 9.92 1.612 293.492 293.492 0 0 1 12.844 2.605c.953.215 1.905.429 2.857.653 1.192.281 2.383.575 3.573.871.933.232 1.867.461 2.799.702 1.221.316 2.441.647 3.66.978.899.244 1.798.483 2.697.735 1.277.359 2.553.737 3.829 1.114.838.247 1.677.487 2.514.741 1.41.429 2.819.88 4.227 1.33.699.224 1.399.437 2.098.665 1.955.64 3.907 1.303 5.857 1.983.15.052.301.101.452.153l.057.021-1.93 7.176a9.933 9.933 0 0 1-4.826 6.164 9.783 9.783 0 0 1-7.663.805 305.628 305.628 0 0 0-10.509-3.024c-52.586-14.111-105.777-13.104-158.28 3.024a9.779 9.779 0 0 1-7.661-.805 9.933 9.933 0 0 1-4.827-6.164l-.943-3.507-.986-3.669a328.949 328.949 0 0 1 6.391-2.164zm33.505 107.447c-16.544-14.244-26.315-35.587-26.808-58.554a7.513 7.513 0 0 0-7.512-7.352h-6.384c-5.165 0-9.365-4.201-9.365-9.365v-13.034c.023.04.05.079.073.119a24.6 24.6 0 0 0 1.648 2.499c.077.103.151.208.23.31.307.396.624.784.955 1.161.076.087.156.17.233.256a23.315 23.315 0 0 0 1.161 1.204c.302.293.611.578.928.855.07.061.137.126.208.186.386.33.784.647 1.191.955.109.082.22.16.33.241.322.235.649.463.984.683.121.08.242.161.365.239.441.28.889.553 1.35.808l.063.032c.406.223.816.432 1.23.631.144.069.289.133.434.199a24.095 24.095 0 0 0 2.323.928c.143.049.285.101.429.147.45.145.902.28 1.357.398.055.014.111.025.166.039.405.103.812.194 1.221.276.156.031.312.057.469.085a23.697 23.697 0 0 0 2.44.312c.147.011.294.026.441.035.465.027.93.044 1.397.044l.042.001c.049 0 .097-.005.146-.006a24.86 24.86 0 0 0 1.893-.086c.54-.045 1.081-.102 1.62-.183.037-.006.074-.014.111-.019a24.816 24.816 0 0 0 1.962-.388c.51-.121 1.019-.254 1.526-.408.025-.007.05-.012.075-.02 13.268-4.076 26.583-7.133 39.922-9.171 31.678-4.839 63.488-3.932 95.115 2.722a284.089 284.089 0 0 1 24.926 6.447c6.503 2.001 13.376 1.283 19.345-2.017.459-.254.904-.524 1.343-.803.129-.082.256-.167.383-.251a25.2 25.2 0 0 0 .967-.672c.113-.083.228-.163.339-.247a25.55 25.55 0 0 0 1.189-.953c.07-.06.136-.123.205-.184a25.355 25.355 0 0 0 1.264-1.187c.286-.288.565-.583.836-.884.073-.081.149-.16.221-.242.332-.379.652-.768.959-1.167.077-.1.15-.202.225-.303a24.846 24.846 0 0 0 .938-1.341c.245-.378.482-.761.707-1.152.025-.044.054-.085.079-.129v13.034c0 5.165-4.201 9.365-9.365 9.365h-6.384a7.515 7.515 0 0 0-7.512 7.352c-.493 22.967-10.264 44.31-26.808 58.554a99.405 99.405 0 0 1-13.092 9.562c-.025.015-.052.025-.077.04-.697.423-1.4.829-2.104 1.232-.22.126-.44.257-.661.381-.742.417-1.489.82-2.24 1.214l-.608.316a88.793 88.793 0 0 1-10.509 4.594l-.268.096a87.612 87.612 0 0 1-8.219 2.494c-.079.02-.157.042-.236.061a87.736 87.736 0 0 1-3.404.766c-.736.152-1.473.299-2.214.432-.46.082-.924.154-1.387.229a91.715 91.715 0 0 1-3.068.449c-.699.09-1.398.179-2.102.252-.506.053-1.014.097-1.522.142a94.68 94.68 0 0 1-2.275.173c-.44.028-.88.058-1.321.08a96.43 96.43 0 0 1-3.417.113c-.064.001-.128.005-.192.005l-.192-.005a96.588 96.588 0 0 1-3.417-.113c-.442-.022-.881-.052-1.321-.08a94.68 94.68 0 0 1-2.275-.173c-.508-.045-1.016-.089-1.522-.142-.704-.074-1.403-.163-2.102-.252a89.19 89.19 0 0 1-3.068-.449c-.462-.075-.926-.147-1.387-.229a96.14 96.14 0 0 1-3.22-.645 88.601 88.601 0 0 1-2.398-.553l-.236-.061a87.912 87.912 0 0 1-8.219-2.494l-.268-.096a88.793 88.793 0 0 1-10.509-4.594c-.203-.105-.406-.209-.608-.316a91.86 91.86 0 0 1-2.24-1.214c-.221-.124-.44-.254-.661-.381a95.289 95.289 0 0 1-2.104-1.232c-.025-.015-.052-.025-.077-.04a99.493 99.493 0 0 1-13.086-9.561zm21.029 123.753a15.102 15.102 0 0 1-16.281-4.355l-36.251-41.372 27.065-8.439c.033-.01.067.001.101-.004.085-.013.17-.027.252-.009l.039.017a.689.689 0 0 1 .203.109c.028.019.062.023.087.047l-.001-.001 48.475 45.939-23.689 8.068zm54.253 67.794c0 8.515-6.644 15.68-15.126 16.313a7.514 7.514 0 0 0-6.954 7.493v18.528h-10.657v-41.797c0-4.548 1.882-9.003 5.164-12.223 3.159-3.098 7.272-4.77 11.524-4.68 8.85.168 16.049 7.51 16.049 16.366zM246.46 369.02l9.538-3.25 9.538 3.249-9.538 20.141-9.538-20.14zm9.538-21.539-49.273-46.695c4.44-6.01 7.139-13.632 7.139-20.949v-12.299a101.65 101.65 0 0 0 20.377 6.738l.07.015a102.996 102.996 0 0 0 6.074 1.128c.743.115 1.486.229 2.234.328 1.013.136 2.03.255 3.05.363.456.047.912.094 1.37.136 1.254.116 2.513.211 3.779.284.283.016.567.027.85.041 1.41.07 2.824.121 4.248.137h.168c1.423-.016 2.838-.067 4.248-.137.283-.014.567-.025.85-.041 1.265-.072 2.525-.168 3.779-.284.458-.042.914-.089 1.37-.136a105.32 105.32 0 0 0 3.05-.363 109.171 109.171 0 0 0 3.807-.586 105.1 105.1 0 0 0 4.5-.87l.07-.015a101.65 101.65 0 0 0 20.377-6.738v12.299c0 7.317 2.699 14.939 7.139 20.949l-49.276 46.695zm54.167 10.963a15.095 15.095 0 0 1-16.282 4.356l-23.689-8.069 40.143-38.043 8.33-7.894c.012-.011.028-.013.041-.022a.703.703 0 0 1 .239-.129c.018-.006.034-.016.052-.022a.692.692 0 0 1 .355.014l27.063 8.438-36.252 41.371z" fill="#3562d7" opacity="1" data-original="#000000" class=""></path></g></svg>