<svg xmlns="http://www.w3.org/2000/svg" version="1.1" xmlns:xlink="http://www.w3.org/1999/xlink" width="40" height="40" x="0" y="0" viewBox="0 0 512 512" style="enable-background:new 0 0 512 512" xml:space="preserve" class=""><g><path d="M437.02 74.98C388.667 26.629 324.38 0 256 0S123.333 26.629 74.98 74.98C26.629 123.333 0 187.62 0 256s26.629 132.667 74.98 181.02C123.333 485.371 187.62 512 256 512s132.667-26.629 181.02-74.98C485.371 388.667 512 324.38 512 256s-26.629-132.667-74.98-181.02zM256 482C131.383 482 30 380.617 30 256S131.383 30 256 30s226 101.383 226 226-101.383 226-226 226z" fill="#111e38" opacity="1" data-original="#000000" class=""></path><path d="M256 106c-82.71 0-150 67.29-150 150s67.29 150 150 150 150-67.29 150-150-67.29-150-150-150zm119.065 135h-30.322a89.539 89.539 0 0 0-15.41-37.12l21.423-21.423c12.912 16.599 21.568 36.663 24.309 58.543zM271 136.936c21.879 2.74 41.944 11.396 58.543 24.309l-21.423 21.422a89.539 89.539 0 0 0-37.12-15.41v-30.321zm-30 0v30.321a89.539 89.539 0 0 0-37.12 15.41l-21.423-21.422c16.599-12.912 36.663-21.568 58.543-24.309zm-79.756 45.522 21.423 21.422a89.539 89.539 0 0 0-15.41 37.12h-30.321c2.74-21.879 11.396-41.943 24.308-58.542zM136.936 271h30.321a89.539 89.539 0 0 0 15.41 37.12l-21.423 21.422c-12.912-16.599-21.568-36.663-24.308-58.542zM241 375.064c-21.88-2.74-41.944-11.396-58.543-24.309l21.423-21.422a89.539 89.539 0 0 0 37.12 15.41v30.321zM196 256c0-33.084 26.916-60 60-60s60 26.916 60 60-26.916 60-60 60-60-26.916-60-60zm75 119.065v-30.322a89.539 89.539 0 0 0 37.12-15.41l21.423 21.423c-16.599 12.912-36.663 21.568-58.543 24.309zm79.755-45.522-21.422-21.423a89.539 89.539 0 0 0 15.41-37.12h30.321c-2.74 21.879-11.396 41.944-24.309 58.543z" fill="#111e38" opacity="1" data-original="#000000" class=""></path></g></svg>