<svg xmlns="http://www.w3.org/2000/svg" version="1.1" xmlns:xlink="http://www.w3.org/1999/xlink" width="512" height="512" x="0" y="0" viewBox="0 0 512 512" style="enable-background:new 0 0 512 512" xml:space="preserve" class=""><g transform="matrix(1,0,0,1,0,1.1368683772161603e-13)"><defs><linearGradient id="a" x1="114.165" x2="431.309" y1="414.188" y2="97.043" gradientUnits="userSpaceOnUse"><stop stop-opacity="1" stop-color="#41dfd0" offset="0"></stop><stop stop-opacity="1" stop-color="#3562d7" offset="0"></stop></linearGradient></defs><path d="M34.343 334.365a8 8 0 0 0 11.314-11.314l-12.409-12.409 15.058-3.765A8 8 0 0 0 56 312.708h24a8 8 0 0 0 5.657-2.343l12.831-12.83 75.588 12.792a37.964 37.964 0 0 0 20.909-2.105l31.986-12.794c.013-.006.025-.013.039-.018L256 316.117v130.9l-6.231 24.923-14.191-7.095a8 8 0 1 0-7.156 14.31l16 8A7.994 7.994 0 0 0 248 488h88a8 8 0 0 0 5.657-2.343l16-16a8 8 0 0 0-11.314-11.314l-12.409 12.409-3.765-15.058A8 8 0 0 0 336 448v-24a8 8 0 0 0-2.343-5.657L320 404.686v-93.6a38.193 38.193 0 0 0-4.012-16.994l-18.025-36.051a334.157 334.157 0 0 0 56.988-63.141l49.08 28.046A7.992 7.992 0 0 0 408 224h80a8 8 0 0 0 8-8v-40a8 8 0 0 0-8-8h-12.687l-5.656-5.657a8 8 0 0 0-9.235-1.5L446.111 168h-27.3l-37.458-29.966-13.978-13.978A32.059 32.059 0 0 0 383.81 99.5l5.847-5.847a8 8 0 0 0 1.933-8.187l-8-24c-.034-.1-.081-.2-.119-.3A44 44 0 0 0 296 68v28h-64a8.007 8.007 0 0 0-3.249.689L158.3 128H128a8 8 0 0 0-8 8v32a8 8 0 0 0 8 8h16v8a8 8 0 0 0 8 8h16a8 8 0 0 0 5.657-2.343l15.083-15.083L233.889 152h43.249l-4.121 18.548-44.587 22.292-10.076 7.4a55.661 55.661 0 0 0-15.149 17.254c-.029.028-.06.052-.089.08l-29.776 29.773-75.711-14.472-.046-.009-.081-.015c-.088-.018-.175-.023-.263-.038-.158-.024-.316-.051-.477-.066a7.312 7.312 0 0 0-.613-.031c-.05 0-.1-.008-.149-.008H56.983l-24.923-6.231 7.095-14.191a8 8 0 0 0-14.31-7.156l-8 16a7.994 7.994 0 0 0-.845 3.578v88a8 8 0 0 0 2.343 5.657ZM32 278.954l16-4v15.508l-16 4Zm16-20.492-16 4v-19.508l16 4Zm272 168.851V440h-48v-24h36.687ZM302.246 472l-4-16h15.508l4 16Zm-32-16h11.508l4 16h-19.508ZM462.42 177.734l3.923 3.923A8 8 0 0 0 472 184h8v24h-24v-27.056ZM416 184h24v24h-29.875l-46.35-26.486q4.634-7.41 8.913-15.078l5.708-10.275L411 182.247a8 8 0 0 0 5 1.753Zm-45.657-93.657A8 8 0 0 0 368 96a16 16 0 0 1-32 0v-8.364a86.864 86.864 0 0 0 35.665-11.343l3.182 9.546ZM312 68a28 28 0 0 1 54.956-7.6A71.026 71.026 0 0 1 328 72a8 8 0 0 0-8 8v16h-8ZM164.687 176H160v-8a8 8 0 0 0-8-8h-16v-16h20l17.437 23.249ZM232 136a7.994 7.994 0 0 0-3.578.845l-42.028 21.013-9.313-12.417-4.656-6.209L233.7 112h52.33l-5.333 24Zm51.578 47.155a8 8 0 0 0 4.232-5.42L302.417 112h21.888a32.048 32.048 0 0 0 24.184 15.8l17.587 17.587-7.376 13.279a318.363 318.363 0 0 1-70.248 86.472l-42.947-42.947Zm-55.625 29.88 3.3-2.472 50.176 50.176 20.253 40.505a22.111 22.111 0 0 1 2.318 9.838V400h-32v-88a8 8 0 0 0-3.35-6.51l-39.95-28.538a39.608 39.608 0 0 1-.744-63.917ZM174.5 263.857a7.993 7.993 0 0 0 7.159-2.2l14.508-14.508a56.436 56.436 0 0 0 .7 6.714 55.2 55.2 0 0 0 15.52 30.166l-23.343 9.337a22.074 22.074 0 0 1-12.2 1.2L104 282.24v-31.858ZM64 248.708h24V285.4l-11.313 11.308H64Z" style="fill:url(#a)" fill="#3562d7"></path></g></svg>